<?xml version="1.0" standalone="no"?>
<!DOCTYPE svg PUBLIC "-//W3C//DTD SVG 20010904//EN" "http://www.w3.org/TR/2001/REC-SVG-20010904/DTD/svg10.dtd">
<svg xmlns="http://www.w3.org/2000/svg" version="1.0" width="512.000000pt" height="512.000000pt" viewBox="0 0 512.000000 512.000000" preserveAspectRatio="xMidYMid meet">
<metadata>
Created by potrace 1.16, written by Peter Selinger 2001-2019
<meta name="Producer" content="Online-Convert"/></metadata>
<g transform="translate(0.000000,512.000000) scale(0.100000,-0.100000)" fill="#000000" stroke="none">
<path d="M2493 4879 c-30 -15 -48 -33 -63 -64 -20 -40 -21 -58 -18 -204 3 -174 7 -187 71 -235 37 -27 117 -27 154 0 64 48 68 61 71 235 3 146 2 164 -18 204 -16 32 -32 49 -64 64 -53 26 -80 26 -133 0z m109 -86 c16 -14 18 -33 18 -165 0 -135 -2 -150 -20 -168 -11 -11 -29 -20 -40 -20 -11 0 -29 9 -40 20 -18 18 -20 33 -20 167 0 122 3 149 17 165 20 22 61 23 85 1z"/>
<path d="M1665 4540 c-61 -25 -95 -100 -80 -176 10 -53 211 -256 272 -274 139 -42 243 98 164 221 -36 56 -199 215 -235 229 -32 12 -93 12 -121 0z m192 -182 c108 -108 120 -132 86 -170 -34 -38 -62 -24 -172 86 -78 79 -103 110 -103 130 0 36 19 56 56 56 26 0 47 -16 133 -102z"/>
<path d="M3325 4535 c-42 -22 -191 -171 -226 -224 -80 -123 25 -263 164 -221 61 18 262 221 272 274 12 60 -1 106 -39 145 -29 29 -43 35 -88 38 -36 3 -63 -1 -83 -12z m113 -88 c6 -5 12 -23 12 -41 0 -26 -16 -47 -102 -133 -108 -108 -132 -120 -170 -86 -38 34 -24 62 85 170 56 55 109 103 117 105 17 6 39 0 58 -15z"/>
<path d="M2405 4254 c-134 -29 -295 -125 -378 -226 -58 -71 -106 -157 -134 -243 -24 -71 -27 -96 -27 -215 0 -119 3 -144 27 -215 61 -183 192 -336 359 -415 l57 -27 -29 -28 -29 -28 -70 66 c-117 110 -260 167 -421 167 -234 0 -438 -126 -540 -332 l-43 -88 -47 0 c-169 0 -336 -111 -416 -275 -36 -75 -39 -87 -42 -187 -4 -89 -1 -117 18 -172 29 -88 88 -176 151 -226 120 -95 183 -110 451 -110 l205 0 -60 -119 c-69 -139 -82 -211 -53 -298 65 -197 329 -249 469 -93 64 70 86 149 67 235 -6 28 -34 97 -63 155 -28 58 -53 108 -55 113 -2 4 134 7 302 7 l305 0 -54 -108 c-86 -170 -95 -254 -35 -359 31 -54 88 -101 149 -121 43 -15 146 -14 188 1 137 51 213 203 169 339 -21 63 -92 206 -139 281 l-34 53 43 37 c23 21 57 60 75 87 l32 50 602 0 c507 0 610 2 660 15 176 46 316 184 369 364 20 68 21 208 1 280 -57 216 -263 380 -476 381 l-57 0 -39 83 c-68 140 -165 241 -295 306 l-57 29 137 4 c158 4 189 15 222 83 25 52 25 78 -1 131 -34 71 -74 84 -252 84 -158 0 -196 -8 -236 -51 -48 -52 -48 -144 1 -197 l23 -25 -40 6 c-22 4 -56 7 -75 7 l-35 0 -1 123 c-1 103 -5 134 -27 202 -113 346 -462 545 -822 469z m305 -89 c171 -45 324 -170 398 -325 53 -111 66 -183 58 -313 -9 -138 -9 -139 6 -148 7 -5 51 -9 98 -9 140 0 257 -41 367 -130 65 -51 144 -168 173 -254 12 -36 25 -66 28 -67 4 0 48 -2 97 -3 147 -5 261 -63 345 -175 196 -260 41 -638 -281 -690 -39 -7 -294 -11 -657 -11 l-592 0 -34 -53 c-33 -52 -129 -147 -147 -147 -5 0 -11 -11 -15 -24 -4 -18 10 -49 57 -127 105 -175 134 -243 134 -321 0 -59 -3 -70 -31 -105 -45 -56 -89 -78 -154 -78 -65 0 -109 22 -154 78 -28 35 -31 46 -31 105 0 57 6 79 38 146 20 43 60 116 88 162 52 86 57 117 21 128 -10 3 -33 1 -52 -4 -20 -6 -188 -10 -401 -10 -359 0 -366 0 -385 -21 -19 -21 -18 -22 14 -77 75 -131 135 -263 139 -310 6 -62 -27 -126 -85 -167 -120 -83 -295 8 -294 153 0 67 57 199 139 322 25 38 30 74 11 87 -7 4 -137 10 -288 13 -272 5 -276 5 -332 32 -247 115 -312 435 -129 631 80 86 173 127 286 128 38 0 78 2 87 5 9 3 24 27 34 57 41 129 132 237 249 298 88 46 159 63 260 62 151 -2 297 -75 396 -199 28 -35 58 -64 67 -64 9 0 38 21 64 47 26 25 75 63 110 83 92 53 90 81 -8 106 -110 29 -183 72 -274 164 -91 91 -136 166 -165 276 -21 78 -21 232 0 309 56 209 229 383 435 439 72 19 240 20 310 1z m1072 -552 c25 -23 23 -68 -4 -87 -18 -13 -52 -16 -165 -16 -130 0 -145 2 -163 20 -24 24 -25 48 -4 78 14 21 21 22 166 22 127 0 154 -3 170 -17z"/>
<path d="M1313 3699 c-44 -22 -83 -82 -83 -129 0 -39 37 -104 72 -125 30 -18 51 -20 205 -20 188 0 198 3 247 68 26 36 27 111 1 155 -35 59 -81 72 -251 72 -131 0 -154 -3 -191 -21z m361 -91 c21 -30 20 -54 -4 -78 -18 -18 -33 -20 -163 -20 -113 0 -147 3 -165 16 -26 18 -29 60 -5 86 14 16 34 18 169 18 147 0 154 -1 168 -22z"/>
<path d="M3427 1858 c-47 -61 -165 -269 -198 -346 -55 -131 -43 -233 38 -322 110 -123 312 -121 417 2 66 76 82 177 47 281 -25 72 -84 185 -164 312 -50 81 -67 101 -89 103 -20 2 -32 -5 -51 -30z m148 -258 c65 -115 97 -206 89 -252 -26 -139 -185 -210 -296 -133 -58 41 -91 105 -85 167 5 53 71 199 144 316 l46 74 24 -39 c13 -21 48 -81 78 -133z"/>
<path d="M2085 1010 c-42 -16 -223 -340 -250 -449 -37 -142 45 -283 188 -326 98 -29 186 -10 262 57 148 130 125 290 -91 625 -56 87 -77 105 -109 93z m73 -202 c66 -110 117 -214 131 -266 22 -81 -24 -177 -103 -213 -138 -63 -293 49 -272 196 10 62 167 365 190 365 3 0 27 -37 54 -82z"/>
<path d="M2999 1013 c-28 -6 -191 -282 -234 -396 -49 -130 -25 -241 70 -325 76 -67 164 -86 262 -57 144 43 225 184 188 329 -28 108 -214 439 -253 448 -9 2 -24 3 -33 1z m81 -218 c66 -109 118 -221 126 -273 17 -105 -78 -212 -188 -212 -123 1 -218 118 -187 232 23 86 171 354 189 343 5 -3 32 -44 60 -90z"/>
</g>
</svg>
